<mxfile host="65bd71144e">
    <diagram id="QA1QkQeYlDdKfOMDepjr" name="Page-1">
        <mxGraphModel dx="671" dy="557" grid="1" gridSize="10" guides="1" tooltips="1" connect="1" arrows="1" fold="1" page="1" pageScale="1" pageWidth="850" pageHeight="1100" math="0" shadow="0">
            <root>
                <mxCell id="0"/>
                <mxCell id="1" parent="0"/>
                <mxCell id="2" value="" style="edgeStyle=none;html=1;fontFamily=Times New Roman;fontSize=13;" edge="1" parent="1" source="3" target="5">
                    <mxGeometry relative="1" as="geometry"/>
                </mxCell>
                <mxCell id="3" value="&lt;font style=&quot;font-size: 13px;&quot;&gt;Start&lt;/font&gt;" style="strokeWidth=2;html=1;shape=mxgraph.flowchart.terminator;whiteSpace=wrap;fontFamily=Times New Roman;fontSize=12;" vertex="1" parent="1">
                    <mxGeometry x="360" y="50" width="120" height="60" as="geometry"/>
                </mxCell>
                <mxCell id="4" value="" style="edgeStyle=none;html=1;fontFamily=Times New Roman;fontSize=13;" edge="1" parent="1" source="5" target="8">
                    <mxGeometry relative="1" as="geometry"/>
                </mxCell>
                <mxCell id="5" value="Input images of notes" style="rounded=1;whiteSpace=wrap;html=1;fontFamily=Times New Roman;strokeWidth=2;" vertex="1" parent="1">
                    <mxGeometry x="360" y="170" width="120" height="60" as="geometry"/>
                </mxCell>
                <mxCell id="6" style="edgeStyle=none;html=1;exitX=0;exitY=0.5;exitDx=0;exitDy=0;fontFamily=Times New Roman;fontSize=13;" edge="1" parent="1" source="8">
                    <mxGeometry relative="1" as="geometry">
                        <mxPoint x="420" y="140" as="targetPoint"/>
                        <Array as="points">
                            <mxPoint x="320" y="300"/>
                            <mxPoint x="320" y="220"/>
                            <mxPoint x="320" y="140"/>
                        </Array>
                    </mxGeometry>
                </mxCell>
                <mxCell id="7" value="" style="edgeStyle=none;html=1;fontFamily=Times New Roman;fontSize=13;" edge="1" parent="1" source="8" target="10">
                    <mxGeometry relative="1" as="geometry"/>
                </mxCell>
                <mxCell id="8" value="If&lt;br&gt;Picture quality&lt;br&gt;is good" style="rhombus;whiteSpace=wrap;html=1;fontFamily=Times New Roman;rounded=1;strokeWidth=2;" vertex="1" parent="1">
                    <mxGeometry x="360" y="250" width="120" height="100" as="geometry"/>
                </mxCell>
                <mxCell id="9" value="" style="edgeStyle=none;html=1;fontFamily=Times New Roman;fontSize=13;" edge="1" parent="1" source="10" target="12">
                    <mxGeometry relative="1" as="geometry"/>
                </mxCell>
                <mxCell id="10" value="Resizing, Greyscaling &amp;amp; Enhancing" style="rounded=1;whiteSpace=wrap;html=1;fontFamily=Times New Roman;strokeWidth=2;" vertex="1" parent="1">
                    <mxGeometry x="360" y="380" width="120" height="60" as="geometry"/>
                </mxCell>
                <mxCell id="11" value="" style="edgeStyle=none;html=1;fontFamily=Times New Roman;fontSize=13;" edge="1" parent="1" source="12" target="14">
                    <mxGeometry relative="1" as="geometry"/>
                </mxCell>
                <mxCell id="12" value="Edge, curve, Strokes is detected &amp;amp; Extracted" style="whiteSpace=wrap;html=1;fontFamily=Times New Roman;rounded=1;strokeWidth=2;" vertex="1" parent="1">
                    <mxGeometry x="360" y="480" width="120" height="60" as="geometry"/>
                </mxCell>
                <mxCell id="13" value="" style="edgeStyle=none;html=1;fontFamily=Times New Roman;fontSize=13;" edge="1" parent="1" source="14" target="17">
                    <mxGeometry relative="1" as="geometry"/>
                </mxCell>
                <mxCell id="14" value="Align the sequence of the text" style="whiteSpace=wrap;html=1;fontFamily=Times New Roman;rounded=1;strokeWidth=2;" vertex="1" parent="1">
                    <mxGeometry x="360" y="570" width="120" height="60" as="geometry"/>
                </mxCell>
                <mxCell id="15" value="" style="edgeStyle=none;html=1;fontFamily=Times New Roman;fontSize=13;" edge="1" parent="1" source="17" target="19">
                    <mxGeometry relative="1" as="geometry"/>
                </mxCell>
                <mxCell id="16" value="" style="edgeStyle=none;html=1;fontFamily=Times New Roman;fontSize=13;" edge="1" parent="1" source="17" target="21">
                    <mxGeometry relative="1" as="geometry">
                        <Array as="points">
                            <mxPoint x="520" y="700"/>
                            <mxPoint x="520" y="890"/>
                            <mxPoint x="420" y="890"/>
                        </Array>
                    </mxGeometry>
                </mxCell>
                <mxCell id="17" value="Check&lt;br&gt;Grammer mistake" style="rhombus;whiteSpace=wrap;html=1;fontFamily=Times New Roman;rounded=1;strokeWidth=2;" vertex="1" parent="1">
                    <mxGeometry x="360" y="660" width="120" height="80" as="geometry"/>
                </mxCell>
                <mxCell id="18" style="edgeStyle=none;html=1;exitX=0.5;exitY=1;exitDx=0;exitDy=0;entryX=0;entryY=0.5;entryDx=0;entryDy=0;fontFamily=Times New Roman;fontSize=13;" edge="1" parent="1" source="19" target="17">
                    <mxGeometry relative="1" as="geometry">
                        <Array as="points">
                            <mxPoint x="420" y="860"/>
                            <mxPoint x="320" y="860"/>
                            <mxPoint x="320" y="700"/>
                        </Array>
                    </mxGeometry>
                </mxCell>
                <mxCell id="19" value="Grammer correction" style="whiteSpace=wrap;html=1;fontFamily=Times New Roman;rounded=1;strokeWidth=2;" vertex="1" parent="1">
                    <mxGeometry x="360" y="770" width="120" height="60" as="geometry"/>
                </mxCell>
                <mxCell id="20" value="" style="edgeStyle=none;html=1;fontFamily=Times New Roman;fontSize=13;" edge="1" parent="1" source="21" target="22">
                    <mxGeometry relative="1" as="geometry"/>
                </mxCell>
                <mxCell id="21" value="Create Pdf using FPDF" style="whiteSpace=wrap;html=1;fontFamily=Times New Roman;rounded=1;strokeWidth=2;" vertex="1" parent="1">
                    <mxGeometry x="360" y="930" width="120" height="60" as="geometry"/>
                </mxCell>
                <mxCell id="22" value="&lt;font style=&quot;font-size: 13px;&quot;&gt;Start&lt;/font&gt;" style="strokeWidth=2;html=1;shape=mxgraph.flowchart.terminator;whiteSpace=wrap;fontFamily=Times New Roman;fontSize=12;" vertex="1" parent="1">
                    <mxGeometry x="360" y="1030" width="120" height="60" as="geometry"/>
                </mxCell>
                <mxCell id="23" value="Yes" style="rounded=0;whiteSpace=wrap;html=1;" vertex="1" parent="1">
                    <mxGeometry x="440" y="340" width="40" height="20" as="geometry"/>
                </mxCell>
                <mxCell id="24" value="No" style="rounded=0;whiteSpace=wrap;html=1;" vertex="1" parent="1">
                    <mxGeometry x="320" y="320" width="40" height="20" as="geometry"/>
                </mxCell>
                <mxCell id="25" value="Yes" style="rounded=0;whiteSpace=wrap;html=1;" vertex="1" parent="1">
                    <mxGeometry x="430" y="740" width="40" height="20" as="geometry"/>
                </mxCell>
                <mxCell id="26" value="No" style="rounded=0;whiteSpace=wrap;html=1;" vertex="1" parent="1">
                    <mxGeometry x="480" y="670" width="40" height="20" as="geometry"/>
                </mxCell>
            </root>
        </mxGraphModel>
    </diagram>
</mxfile>